<svg xmlns="http://www.w3.org/2000/svg" width="98.204" height="35" viewBox="0 0 98.204 35">
  <path id="Path_1" data-name="Path 1" d="M47.545,176.79a11.993,11.993,0,0,1-7.192-2.4,14.374,14.374,0,0,1-1.494-1.495,9.336,9.336,0,0,1-1.62-2.915c-1.059-3.173-.514-7.336,1.559-11.905,1.775-3.911,4.515-7.791,9.294-13.164.7-.79,2.8-3.1,2.813-3.1s-.109.2-.253.439a28.165,28.165,0,0,0-2.885,6.655c-.93,3.405-.818,6.328.329,8.594a8.4,8.4,0,0,0,3.673,3.661c2.67,1.308,6.579,1.417,11.353.317.329-.076,16.615-4.4,36.193-9.608s35.6-9.468,35.6-9.464-45.484,19.47-69.1,29.568c-3.74,1.6-4.74,2-6.5,2.62A32.942,32.942,0,0,1,47.545,176.79Z" transform="translate(-36.712 -141.804)" fill="#fff"/>
</svg>
